<svg version="1.1" xmlns="http://www.w3.org/2000/svg" style="display: block;" viewBox="0 0 2048 2048" width="512" height="512">
<path transform="translate(0,0)" fill="rgb(164, 214, 181)" d="M 880.424 202.096 C 896.448 156.584 963.696 25.4204 1006.99 5.42276 C 1016.77 0.901275 1027.17 0.729767 1037.25 4.51557 C 1072.43 17.7295 1131.63 119.504 1149.53 155.24 C 1153.37 162.912 1165.81 194.501 1169.76 198.569 C 1171.11 199.957 1172 200.134 1173.69 199.242 C 1181.49 195.125 1196.02 179.261 1203.62 172.84 C 1230.78 149.873 1259.07 128.84 1288.03 108.224 C 1304.69 96.3658 1322.54 82.2907 1341.61 74.6889 C 1349.38 71.5946 1358.08 70.3791 1366.36 71.7438 C 1379.56 73.9191 1391.96 82.1789 1399.47 93.0847 C 1421.26 124.721 1452.42 253.282 1455.2 293.976 C 1493.25 273.458 1648.04 215.365 1685.29 227.35 C 1698.05 231.454 1709.53 241.416 1715.28 253.542 C 1733.34 291.587 1697.16 431.999 1685.05 475.183 C 1728.13 469.414 1870.61 473.711 1904.09 499.583 C 1914.93 507.955 1922.72 519.214 1924.51 533.027 C 1925.49 540.687 1924.86 548.468 1922.67 555.873 C 1918.78 568.771 1911.16 581.341 1905.04 593.315 C 1888.43 625.12 1870.99 656.489 1852.75 687.389 C 1844.46 701.563 1834.27 715.891 1827.18 730.594 C 1876.6 736.832 1939.55 765.038 1984.27 786.426 C 2001.04 794.449 2024.72 803.206 2036.17 818.642 C 2042.95 827.784 2044.28 838.05 2048 848.409 L 2048 854.54 C 2045.54 862.008 2044.39 870.306 2039.83 876.852 C 2032.22 887.759 2020.16 897.246 2010.36 906.155 C 1982.73 931.263 1954.17 954.574 1924.7 977.467 C 1902.5 994.719 1879.37 1012.55 1854.98 1026.64 C 1873.82 1039.13 1893.51 1050.15 1912.17 1063 C 1943.82 1084.78 2015.6 1141.11 2036.79 1170.63 C 2041.18 1176.68 2044.23 1183.61 2045.72 1190.94 C 2047.95 1202.47 2045.48 1214.41 2038.87 1224.11 C 2034.74 1230.12 2029.21 1234.87 2023.16 1238.85 C 1990.23 1260.52 1866.08 1312.84 1828.47 1319.01 C 1851.63 1354.75 1930.96 1484.37 1924.18 1520.15 C 1921.68 1533.35 1910.89 1547.85 1899.54 1554.94 C 1869.76 1573.54 1723.3 1579.86 1685.96 1572.92 C 1700.62 1628.84 1712.05 1681.07 1718.4 1738.64 C 1719.79 1751.19 1722.46 1765.07 1721.8 1777.63 C 1721.43 1785.97 1719 1794.09 1714.73 1801.26 C 1708.1 1812.21 1696.81 1819.91 1684.4 1822.79 C 1677.36 1824.42 1670.27 1824.42 1663.13 1823.56 C 1621.89 1818.61 1491.85 1778.17 1459 1757.69 C 1458.23 1757.21 1457.5 1756.68 1456.77 1756.15 C 1450.02 1807.59 1436.92 1859.21 1420.14 1908.23 C 1415.38 1922.13 1410.81 1936.73 1403.27 1949.4 C 1399.73 1955.36 1395.35 1960.49 1389.84 1964.74 C 1378.73 1973.31 1365.87 1976.68 1352.02 1974.4 C 1315.97 1968.45 1198.14 1876.72 1171.65 1846.67 C 1164.28 1867.35 1153.71 1887.06 1143.07 1906.21 C 1123.69 1941.1 1103.04 1973.31 1078.65 2004.84 C 1068.75 2017.63 1057.24 2034.37 1042.36 2041.67 C 1035.91 2044.84 1028.86 2046.39 1021.9 2048 L 1016.19 2048 C 1006.53 2042.97 997.794 2037.72 989.795 2030.21 C 958.554 2000.87 919.72 1934.14 899.834 1895.12 C 892.097 1879.94 886.237 1862.03 876.864 1848.03 C 868.587 1850.64 845.523 1874.35 837.414 1881.12 C 807.261 1905.83 775.568 1928.6 742.526 1949.29 C 732.402 1955.69 721.989 1963 711.145 1968.09 C 704.657 1971.13 697.796 1973.3 690.622 1973.85 C 676.334 1974.95 663.427 1971.4 652.448 1961.98 C 648.417 1958.52 645.422 1955.12 642.824 1950.47 C 636.487 1939.11 633.233 1925.23 629.33 1912.89 C 617.285 1874.82 607.254 1837.39 599.78 1798.11 C 597.096 1784 594.012 1769.75 593.014 1755.4 C 569.577 1764.08 546.682 1774.2 523.21 1782.84 C 491.344 1794.42 458.943 1804.48 426.118 1812.97 C 413.178 1816.45 399.853 1820.77 386.587 1822.67 C 379.325 1823.7 372.082 1823.93 364.872 1822.27 C 352.743 1819.49 341.634 1811.62 335.346 1800.83 C 331.708 1794.59 330.043 1787.71 329.252 1780.59 C 328.269 1771.74 329.034 1762.28 329.359 1753.39 C 330.916 1710.72 337.06 1666.85 345.62 1625.01 C 349.153 1607.75 353.799 1590.63 358.103 1573.55 C 320.51 1578.24 172.612 1570.07 143.371 1549.19 C 133.703 1542.28 127.423 1532.43 125.569 1520.66 C 124.337 1512.83 125.169 1504.94 127.001 1497.29 C 129.679 1486.09 134.644 1475.19 138.966 1464.54 C 153.238 1429.37 169.261 1394.46 189.712 1362.4 C 199.064 1347.74 210.137 1334.77 220.229 1320.69 C 165 1303.6 112.872 1281.25 60.8478 1256.21 C 45.5858 1248.86 27.7198 1241.78 14.4878 1231.12 C 7.65907 1225.63 4.07657 1217.44 0 1209.91 L 0 1182.27 C 12.2184 1163.28 26.8106 1150.76 43.3267 1135.67 C 77.5234 1104.14 114.402 1075.65 153.544 1050.53 C 165.837 1042.6 178.641 1035.52 191.08 1027.83 C 178.298 1015.91 161.248 1006.26 147.133 995.748 C 112.593 970.018 80.4562 942.868 48.4485 914.142 C 34.2297 901.381 16.2319 887.762 6.79314 870.854 C 3.69456 865.304 3.24652 858.492 0.739219 852.665 C 0.498756 852.106 0.246406 851.553 0 850.997 L 0 839.984 L 0.779043 838.31 C 4.84477 829.404 6.68566 820.89 13.2883 813.164 C 27.9721 795.982 81.2607 777.107 104.462 768.225 C 129.901 758.512 155.676 749.702 181.737 741.811 C 194.961 737.712 208.371 732.894 222.088 730.843 C 216.515 721.967 210.337 713.48 204.846 704.565 C 183.569 669.234 163.453 633.216 144.53 596.569 C 137.962 583.657 129.683 569.889 125.717 555.97 C 123.117 546.712 122.846 536.954 124.929 527.566 C 127.961 513.86 136.542 502.027 148.627 494.886 C 162.66 486.697 180.534 485.66 196.32 483.359 C 252.086 475.231 308.069 470.82 364.421 475.104 C 351.313 437.906 316.001 283.011 331.403 252.025 C 336.977 240.811 346.521 230.711 358.678 226.884 C 380.189 220.113 406.335 228.911 427.332 234.324 C 484.68 249.108 540.856 268.716 593.298 296.563 C 601.372 241.686 611.548 189.013 628.431 135.99 C 632.483 123.267 636.072 109.276 642.712 97.6219 C 646.221 91.4631 650.848 85.9834 656.57 81.7743 C 666.943 74.1445 680.382 71.7684 692.967 73.8418 C 728.003 79.614 851.379 174.851 880.424 202.096 z M 1045.57 1280.73 C 1187.33 1268.79 1292.41 1143.93 1279.98 1002.2 C 1267.55 860.478 1142.33 755.826 1000.65 768.747 C 859.653 781.606 755.619 906.084 767.993 1047.12 C 780.367 1188.16 904.486 1292.62 1045.57 1280.73 z M 1193.65 710.77 C 1212.38 723.519 1230.86 735.996 1248.53 750.213 C 1259.83 759.448 1270.12 769.361 1280.25 779.828 C 1287.79 787.614 1295.19 796.178 1303.69 802.897 C 1304.03 802.651 1304.36 802.402 1304.7 802.159 C 1314.66 795.048 1325.93 789.623 1336.44 783.347 C 1352.69 773.685 1368.24 762.888 1382.97 751.036 C 1500.1 656.384 1579.2 522.699 1605.79 374.471 C 1607.33 365.698 1611.36 349.76 1611.05 341.551 C 1609.48 340.174 1610.22 340.399 1609.2 340.176 C 1483.02 379.977 1358.54 446.81 1273.94 550.82 C 1257.87 570.578 1242.73 591.023 1230.96 613.685 C 1214.88 644.643 1201.6 676.766 1193.65 710.77 z M 435.091 1706.22 C 463.511 1697.07 492.233 1688.27 519.738 1676.58 C 579.877 1652.27 641.015 1623.02 692.166 1582.54 C 716.31 1563.44 738.025 1542.08 759.274 1519.89 C 791.298 1486.43 820.266 1448.27 838.427 1405.44 C 846.991 1385.24 855.492 1363.14 858.715 1341.43 C 835.511 1327.09 812.999 1313.21 791.838 1295.9 C 782.601 1288.34 756.537 1258.37 749.049 1255.67 C 720.715 1282.5 683.836 1293.8 653.341 1318.53 C 637.044 1331.75 620.261 1345.15 605.229 1359.78 C 532.702 1430.81 480.259 1519.77 453.221 1617.62 C 445.129 1647.06 441.745 1676.69 435.091 1706.22 z M 747.919 801.393 C 760.888 781.61 779.454 760.742 798.618 746.998 C 808.562 739.474 818.542 732.019 828.947 725.137 C 836.519 720.129 844.855 715.75 851.735 709.817 C 852.754 701.7 847.346 691.005 844.408 683.429 C 827.075 638.395 803.284 596.122 773.783 557.937 C 702.125 465.816 595.984 398.922 487.435 358.648 C 470.664 352.425 451.994 343.667 434.499 340.205 C 438.651 362.087 441.469 384.016 446.963 405.645 C 482.495 545.528 558.441 681.146 679.45 763.712 C 701.015 778.434 723.943 791.052 747.919 801.393 z M 1190.4 1341.31 C 1206.16 1383.32 1220.33 1428.12 1243.8 1466.62 C 1255.57 1485.94 1272.31 1503.68 1288.02 1519.92 C 1353.45 1587.5 1417.62 1627.04 1502.5 1665.6 C 1512.81 1670.4 1523.22 1674.95 1533.75 1679.24 C 1560.39 1689.52 1587.4 1697.47 1614.49 1706.34 C 1607.94 1672.44 1602.92 1638.19 1592.28 1605.24 C 1561.6 1510.19 1506.01 1423.62 1436.16 1352.72 C 1419.07 1335.38 1398.83 1315.95 1378.62 1302.33 C 1366.52 1294.18 1353.08 1288.27 1340.64 1280.69 C 1331.17 1274.93 1307.95 1257.71 1299.84 1254.48 C 1283.79 1276.44 1248.46 1305.83 1225.93 1320.76 C 1214.48 1328.34 1202.38 1334.65 1190.4 1341.31 z M 1024.92 1912.87 C 1033.5 1897.66 1042.63 1882.77 1051.3 1867.6 C 1094.97 1788.27 1126.92 1696.89 1136.4 1606.51 C 1137.82 1593 1138.05 1579.23 1138.6 1565.66 C 1139.73 1537.79 1140.44 1509.35 1132.49 1482.31 C 1126.3 1461.24 1118.39 1440.71 1111.61 1419.84 C 1107.55 1407.35 1104.75 1394.13 1100.13 1381.88 C 1099.14 1379.22 1098.28 1377.05 1096.32 1374.94 C 1085.52 1374.02 1073.54 1377.79 1062.69 1378.81 C 1038.79 1381.03 979.791 1381.1 957.54 1373.31 C 957.135 1373.17 956.725 1373.04 956.32 1372.9 C 956.077 1372.81 955.837 1372.72 955.596 1372.63 L 955.377 1374.15 C 948.12 1422.89 921.242 1466.12 911.09 1514.07 C 903.685 1549.05 906.147 1586.51 911.27 1621.64 C 926.524 1726.24 968.231 1824.11 1024.92 1912.87 z M 948.023 677.364 C 973.694 671.769 999.905 669.031 1026.18 669.202 C 1050.36 669.506 1074.56 670.795 1098.02 677.198 C 1135.27 581.905 1145.95 496.685 1128.04 395.403 C 1118.84 343.425 1102.23 291.62 1080.99 243.291 C 1075.08 229.828 1030.31 142.739 1022.79 139.385 C 1014.09 156.909 1003.3 173.322 994.135 190.603 C 982.145 213.223 971.354 237.109 961.011 260.52 C 923.576 345.245 902.544 443.614 912.021 536.352 C 915.876 574.081 925.422 612.649 937.482 648.566 C 940.743 658.256 944.258 667.859 948.023 677.364 z M 421.606 703.339 C 442.506 704.506 463.054 705.752 483.719 709.192 C 457.774 678.544 417.099 613.032 403.097 574.803 C 370.575 569.498 334.857 568.681 301.937 570.558 C 282.424 571.233 262.915 572.895 243.425 573.438 C 251.176 584.617 257.065 597.175 263.667 609.061 C 275.819 630.576 288.534 651.769 301.798 672.616 C 309.535 684.939 316.95 698.176 326.611 709.083 C 358.064 704.555 389.837 702.633 421.606 703.339 z M 676.04 950.525 C 679.398 928.445 687.773 910.29 695.247 889.636 C 669.443 877.717 645.084 862.595 619.488 850.219 C 551.784 817.486 479.234 802.401 404.294 802.489 C 342.889 803.769 281.994 813.946 223.511 832.702 C 204.392 838.934 185.309 845.277 166.264 851.73 C 157.089 854.871 147.83 858.866 138.439 861.209 C 149.855 870.115 160.338 880.061 171.635 889.1 C 197.08 909.457 223.42 929.067 249.903 948.051 C 264.473 958.495 279.841 970.197 295.989 978.085 C 334.949 966.02 374.385 950.493 415.107 945.437 C 492.206 932.378 554.154 929.807 631.74 942.43 C 646.502 944.832 661.5 947.011 676.04 950.525 z M 1701.31 569.57 C 1682.61 570.45 1663.76 571.545 1645.19 573.929 C 1636.11 584.729 1629.51 603.605 1622.62 616.391 C 1610.63 638.662 1596.87 660.035 1582.99 681.164 C 1576.7 690.741 1570.65 701.032 1563.5 709.966 C 1597.36 704.109 1631.74 701.851 1666.07 703.229 C 1682.95 704.53 1699.82 706.544 1716.68 707.713 C 1741.51 680.442 1762.9 647.399 1781.46 615.598 C 1789.7 601.481 1797.17 586.749 1805.75 572.865 C 1771.72 568.597 1735.52 567.481 1701.31 569.57 z M 838.334 297.004 C 823.183 285.634 809.234 272.577 794.69 260.447 C 779.059 247.41 762.683 235.082 746.753 222.391 C 737.984 215.406 723.834 202.218 713.766 198.264 C 708.907 225.423 684.629 327.055 691.279 346.946 C 698.965 355.697 711.612 362.284 721.104 369.228 C 731.824 377.071 742.294 385.431 752.503 393.921 C 764.827 404.17 800.718 440.249 810.052 445.295 C 810.52 444.897 811.406 444.291 811.728 443.783 C 813.965 410.214 819.609 375.237 827.027 342.455 C 830.448 327.335 835.665 312.227 838.334 297.004 z M 1359.45 344.878 L 1359.12 343.117 C 1356.57 329.1 1356.06 314.793 1354.09 300.685 C 1352.22 287.307 1338.89 205.611 1331.74 198.912 L 1330.4 198.63 C 1302.55 222.253 1273.21 244.081 1245.11 267.441 C 1232.41 278 1218.95 288.483 1207.81 300.734 C 1220.29 341.443 1229.29 383.136 1234.73 425.365 C 1235.14 428.72 1235.38 439.001 1237.6 440.802 L 1238.75 441.736 C 1260.7 417.371 1290.9 391.855 1317.74 373.164 C 1331.3 363.717 1346.94 355.609 1359.45 344.878 z M 1641.5 1467.13 C 1647.43 1469.23 1653.54 1470.98 1659.79 1471.8 C 1711.03 1477.05 1752.54 1475.18 1803.57 1471.9 C 1787.4 1439.36 1767.76 1408.91 1747.69 1378.68 C 1739.36 1366.13 1731.3 1352.3 1720.66 1341.58 C 1715.84 1341.83 1711.02 1342.01 1706.23 1342.63 C 1671.21 1345.88 1637.05 1348.15 1601.83 1347.41 C 1588.9 1347.14 1576.01 1347.29 1563.32 1344.47 C 1593.19 1382.89 1618.33 1424.41 1641.5 1467.13 z M 1361.7 1710.04 C 1330.61 1691.51 1300.56 1669.08 1273.38 1645.26 C 1264.64 1637.6 1244.01 1614.39 1234.93 1611.15 C 1233.89 1651.76 1222.03 1707.97 1211.87 1747.34 C 1242.82 1780.27 1278.16 1807.95 1314.17 1835.04 C 1319.55 1839.09 1325.43 1845.3 1331.57 1847.78 C 1334.05 1847.13 1333.16 1847.85 1334.36 1845.78 C 1347.71 1801.49 1356.86 1756.05 1361.7 1710.04 z M 327.035 1344.9 C 295.533 1385.09 265.537 1426.08 246.515 1473.89 C 297.82 1477.7 349.365 1476.87 400.521 1471.41 C 407.061 1467.32 432.156 1417.63 438.848 1406.99 C 452.348 1385.53 467.292 1364.93 482.419 1344.6 C 445.468 1349.92 406.192 1348.31 368.994 1346.97 C 355.2 1346.47 340.694 1346.71 327.035 1344.9 z M 810.919 1606.75 C 802.983 1617.19 792.912 1625.47 783.058 1634.03 C 753.169 1659.99 721.549 1681.93 688.933 1704.3 C 692.158 1732.89 695.071 1761.69 700.382 1789.99 C 703.95 1808.99 709.072 1827.78 713.533 1846.6 C 715.193 1847.68 714.443 1847.62 715.579 1847.54 C 742.931 1827.92 769.762 1808.44 795.227 1786.35 C 809.662 1773.82 822.712 1758.64 837.913 1747.23 C 830.867 1714.9 822.925 1682.51 817.569 1649.85 C 816.313 1642.19 814.789 1611.14 810.919 1606.75 z M 1636.53 803.453 C 1536.85 806.952 1439.96 837.219 1356.02 891.076 C 1362.4 908.443 1369.53 927.171 1372.97 945.342 C 1402.02 941.387 1431.03 936.819 1460.29 934.715 C 1524.55 930.094 1590 936.107 1652.87 949.617 C 1671.49 953.297 1689.91 957.956 1708.04 963.575 C 1722.49 968.112 1736.76 973.777 1751.35 977.825 C 1766.69 971.622 1781.1 960.107 1794.67 950.698 C 1821.31 932.368 1847.51 913.388 1873.22 893.777 C 1882.96 886.219 1892.08 877.887 1901.75 870.254 C 1904.95 867.729 1911.66 864.712 1913.45 861.302 C 1913.59 861.045 1913.65 860.756 1913.75 860.483 C 1911.09 855.168 1863.39 840.43 1854.31 837.398 C 1784.22 813.561 1710.54 802.075 1636.53 803.453 z M 1380.26 1046.39 C 1377.46 1085.99 1370.65 1133.01 1350.63 1167.72 C 1379.91 1187.28 1411.37 1207.89 1444.1 1221.21 C 1533.69 1257.67 1651.72 1255.91 1745.12 1237.04 L 1746.79 1236.69 C 1799.06 1227.44 1863.4 1206.07 1911.23 1183.78 C 1881.76 1162.03 1852.45 1140.1 1820.92 1121.36 C 1727.77 1065.99 1614.58 1030.79 1505.72 1033.44 C 1480.43 1034.27 1455.2 1036.34 1430.12 1039.65 C 1413.64 1041.78 1396.8 1045.49 1380.26 1046.39 z M 507.61 1035.43 C 411.32 1038.68 300.915 1073.73 219.366 1124.46 C 201.566 1135.62 184.143 1147.37 167.125 1159.68 C 156.879 1167.15 146.759 1176.03 135.901 1182.5 C 198.911 1211.1 263.614 1233.33 332.25 1243.58 C 441.883 1258.57 546.109 1250.22 646.13 1200.76 C 663.46 1192.18 679.417 1181.56 696.026 1171.74 C 681.596 1138.03 671.553 1105 668.759 1068.26 C 668.287 1062.05 669.408 1052.24 662.748 1049.4 C 655.286 1046.21 645.692 1045.36 637.724 1043.96 C 594.817 1036.18 551.164 1033.32 507.61 1035.43 z"/>
</svg>