<svg version="1.1" xmlns="http://www.w3.org/2000/svg" style="display: block;" viewBox="0 0 2048 2048" width="1024" height="1024">
<path transform="translate(0,0)" fill="rgb(47,83,78)" d="M 1021.84 906.246 C 962.494 898.67 903.201 884.903 852.852 851.148 C 765.818 792.799 726.815 694.581 729.077 592.469 C 729.936 553.677 736.797 515.313 724.884 477.4 C 720.252 462.451 713.475 448.254 704.765 435.251 C 696.869 423.562 687.457 412.763 677.8 402.495 C 673.16 397.562 667.894 392.988 663.758 387.616 C 662.179 385.564 660.783 383.416 660.394 380.81 C 659.363 373.917 664.942 366.19 669.065 360.94 C 696.132 326.479 754.049 298.742 798.114 301.81 C 810.081 302.643 831.871 309.57 842.14 307.836 C 849.414 306.607 862.055 284 866.566 277.955 C 897.566 236.412 941.638 211.839 992.801 204.842 C 1065.74 194.868 1145.78 212.004 1200.05 263.933 C 1207.9 271.447 1228.4 297.948 1235.32 301.306 C 1243.42 305.234 1255.58 302.664 1264.58 303.901 C 1302.62 309.132 1344.96 327.002 1375.14 350.294 C 1387.54 359.859 1411.57 380.575 1413.14 397.054 C 1415.58 422.775 1349.79 459.182 1345.31 476.53 C 1339.92 497.384 1343.81 527.406 1343.53 549.502 C 1342.41 639.977 1328.57 728.048 1267.82 799.295 C 1212.75 863.878 1133.05 894.553 1050.21 900.97 C 1042.65 950.113 1026.25 998.223 1012.9 1046.03 C 972.06 1192.28 938.911 1337.17 974.73 1488.75 C 980.946 1448.52 1008.36 1378.96 1033.7 1346.84 C 1034.25 1351.66 1035.31 1352.47 1039.1 1355.45 C 1041.89 1357.64 1048.15 1360.35 1051.83 1359.9 C 1053.01 1359.76 1052.99 1359.45 1054.06 1358.59 C 1055.69 1357.3 1055 1357.73 1056.31 1357.03 C 1016.25 1423.99 993.739 1488.73 997.993 1567.77 C 1014.69 1516.61 1038.92 1464.23 1081.25 1429.08 C 1130.57 1388.12 1199.06 1370.93 1262.22 1377.1 C 1271.72 1378.03 1281.13 1379.69 1290.37 1382.06 C 1298.41 1384.06 1356.81 1401.64 1359.49 1405.63 C 1361.07 1407.97 1361.2 1410.79 1360.68 1413.48 C 1357.24 1431.38 1314.88 1458.98 1299.32 1469.28 C 1243.23 1506.4 1181.64 1536.43 1112.47 1528.54 C 1091.05 1526.1 1070 1519.79 1048.86 1515.48 C 1036.11 1541.09 1025.39 1568.3 1021.04 1596.73 C 1018.44 1613.15 1019.38 1629.94 1023.82 1645.97 C 1034.1 1684.16 1075.74 1749.94 1100.24 1780.88 C 1112.76 1796.67 1127.95 1810.64 1139.77 1826.88 C 1143.02 1831.35 1147.02 1838.57 1145.46 1844.36 C 1144.71 1847.15 1143.3 1849.06 1140.75 1850.42 C 1136.3 1852.81 1130.54 1852.99 1125.81 1851.4 C 1122.14 1850.18 1119.03 1847.99 1116.32 1845.26 C 1109.88 1838.81 1104.83 1830.31 1099.32 1823.01 C 1094.34 1816.4 1088.81 1810.23 1083.65 1803.75 C 1007.31 1708.03 968.305 1601.96 946.065 1482.59 C 937.599 1437.15 933.386 1391.55 918.174 1347.61 C 906.506 1313.91 889.659 1282.28 870.008 1252.58 C 861.88 1240.3 851.126 1229.45 844.667 1216.16 C 822.8 1215.33 801.195 1214.1 779.66 1209.86 C 669.919 1188.28 592.799 1107.55 532.958 1018.3 C 518.206 996.293 506.243 973.502 492.916 950.711 C 484.623 936.529 474.286 922.486 468.021 907.315 C 466.234 902.99 464.108 896.98 465.531 892.266 C 466.475 889.139 469.116 886.984 471.972 885.652 C 481.3 881.302 495.075 882.462 505.279 882.482 C 561.422 882.593 618.402 891.579 671.047 911.407 C 772.541 949.633 844.676 1029.88 872.159 1134.89 C 874.87 1145.25 877.225 1156.08 878.298 1166.75 C 879.892 1182.58 879.437 1199.09 884.29 1214.4 C 888.226 1226.81 895.107 1238.86 900.956 1250.48 C 911.345 1271.12 922.223 1291.64 931.783 1312.68 C 947.568 1173.75 986.464 1041.02 1021.84 906.246 z M 856.698 385.111 C 858.392 437.597 870.129 483.919 891.677 531.709 C 898.484 546.803 906.14 563.509 918.441 574.988 C 925.618 581.686 933.863 587.203 941.096 593.865 C 955.802 607.411 969.23 622.963 982.064 638.274 C 990.141 629.159 996.215 618.502 1003.42 608.719 C 1014.25 594.024 1027.74 580.983 1041.73 569.326 C 1068.69 546.866 1097.98 526.015 1126.86 506.121 C 1178.04 470.857 1228.94 446.497 1224.7 375.248 C 1222.35 335.703 1202.75 301.285 1173.2 275.354 C 1132.86 239.946 1072.6 224.537 1019.59 228.305 L 1017.85 228.442 C 970.258 230.499 926.16 249.195 893.762 284.834 C 880.861 299.026 867.742 317.329 869.006 337.464 C 870.487 361.068 886.662 383.411 904.186 398.178 C 943.382 431.208 1003.3 442.293 1053.2 437.614 C 1081.04 435.003 1110.42 427.962 1128.86 405.334 C 1137.3 394.983 1145.05 382.638 1143.35 368.724 C 1140.93 348.996 1125.04 330.101 1109.59 318.674 C 1085.46 300.81 1060.62 297.007 1031.37 301.579 C 1012.69 304.498 984.51 310.41 972.495 326.554 C 967.425 333.425 965.471 342.108 967.109 350.489 C 968.346 356.58 972.222 361.246 977.436 364.449 C 994.212 374.753 1026.07 377.185 1044.93 372.275 C 1052.88 370.206 1060.31 365.593 1064.21 358.138 C 1068.32 350.273 1063.53 339.212 1074.14 335.213 C 1077.73 333.859 1081.64 333.976 1085.04 335.809 C 1090.41 338.704 1093.27 344.388 1094.76 350.084 C 1096.78 357.803 1095.1 365.482 1090.78 372.093 C 1080.64 387.591 1057.88 397.024 1040.36 400.361 C 1015.24 405.145 982.116 399.379 960.937 384.731 C 949.435 376.776 939.749 365.742 937.053 351.63 C 934.557 338.566 939.163 325.519 946.79 314.968 C 964.747 290.129 997.954 280.099 1026.83 275.69 C 1062.24 270.281 1098.14 275.443 1127.52 297.017 C 1134.42 302.083 1141.15 308.141 1146.67 314.687 C 1161.74 333.288 1173.39 359.135 1170.87 383.597 C 1168.84 403.352 1155.9 420.534 1140.72 432.552 C 1102.39 462.913 1043.36 469.568 995.995 463.756 C 939.996 456.885 891.911 429.327 856.698 385.111 z M 1054.72 873.587 C 1068.48 873.246 1082.66 870.933 1096.16 868.334 C 1150.24 857.921 1198.69 834.662 1237.14 794.521 C 1297.66 731.346 1320.2 637.843 1317.95 552.136 C 1317.6 538.828 1316.33 525.461 1316.35 512.161 C 1316.36 508.83 1318.27 495.942 1316.97 494.165 C 1238.99 536.245 1133.46 602.716 1084.04 678.167 C 1072.96 695.134 1064.46 713.646 1058.81 733.101 C 1050.76 760.221 1060.89 776.198 1061.07 803.585 C 1061.22 826.807 1058.08 850.625 1054.72 873.587 z M 723.065 1059.16 C 766.224 1091.31 828.271 1143.53 857.606 1188.45 C 850.738 1109.54 805.091 1035.17 744.949 984.739 C 694.85 942.729 631.147 918.909 566.57 911.889 C 544.476 909.487 522.31 909.249 500.12 908.696 L 501.133 909.936 C 511.817 923.121 518.773 940.063 526.816 955.02 C 535.083 970.135 543.793 985.003 552.934 999.606 C 567.536 1022.48 583.866 1044.21 601.783 1064.59 C 657.382 1129.03 727.735 1182.46 815.01 1191.61 C 820.105 1192.1 825.218 1192.38 830.336 1192.45 C 808.109 1162.72 782.788 1137.13 754.215 1113.43 C 739.305 1101.07 722.646 1089.6 708.787 1076.1 C 705.745 1073.13 704.007 1071.24 703.966 1066.77 C 705.787 1062.31 708.817 1060.38 713.144 1058.5 C 716.888 1056.89 719.459 1057.91 723.065 1059.16 z M 1006.26 661.478 C 1011.76 680.309 1025.47 696.206 1038.52 710.437 C 1044.47 699.983 1048.67 688.797 1053.97 678.036 C 1059.97 665.869 1067.33 654.713 1075.16 643.67 C 1122.3 582.654 1187.38 538.905 1252.57 499.105 C 1278.3 483.399 1305.66 469.034 1329.82 450.972 C 1343.43 440.798 1355.44 429.378 1367.59 417.558 C 1373.3 412.006 1379.79 406.566 1385.01 400.583 C 1365.65 368.154 1332.31 346.103 1296.09 336.794 C 1279.13 332.433 1262.37 331.356 1245.21 328.668 C 1255.31 371.711 1255.2 415.332 1231.11 454.072 C 1213.16 482.922 1182.7 501.883 1155.12 520.516 C 1106.98 553.039 1022.8 603.278 1006.26 661.478 z M 1213.27 1403.42 C 1165.35 1407.09 1118.2 1426.62 1086.36 1463.68 C 1078.91 1472.35 1071.94 1482.46 1065.91 1492.18 C 1076.57 1492.84 1087.01 1496.36 1097.41 1498.67 C 1121.15 1503.94 1143.29 1503.81 1167.23 1500.03 C 1208.92 1491.21 1248.92 1469.43 1283.82 1445.31 C 1295.22 1437.44 1306.03 1428.4 1317.69 1420.96 C 1288.7 1410.18 1261.9 1402.55 1230.54 1402.86 C 1224.95 1402.91 1218.77 1402.62 1213.27 1403.42 z M 868.543 548.035 C 836.068 485.594 819.172 403.68 837.714 334.672 C 823.845 330.543 807.326 326.429 792.711 328.446 C 760.587 329.817 737.123 337.575 712.02 357.995 C 704.345 364.238 696.89 371.976 688.453 377.101 C 720.584 418.448 746.254 427.908 755.38 483.932 C 765.633 485.852 793.215 507.103 804.798 513.838 C 825.505 525.978 846.51 538.415 868.543 548.035 z M 1028.56 877.423 C 1039.55 805.184 1037.86 754.266 992.58 692.786 C 942.527 624.828 893.841 595.952 823.255 554.022 C 801.352 541.011 779.881 527.235 757.996 514.246 C 757.405 534.485 755.864 554.706 755.597 574.949 C 754.562 653.274 766.668 731.231 822.729 790.665 C 865.051 835.534 920.567 860.891 979.98 873.905 C 993.346 876.833 1008.57 880.339 1022.23 880.446 C 1023.9 880.46 1025.4 880.302 1027.05 880.083 C 1027.79 879.123 1028.26 878.613 1028.56 877.423 z"/>
<path transform="translate(0,0)" fill="rgb(47,83,78)" d="M 1044.75 1329.94 C 1056.65 1311.31 1082.24 1284.26 1089.95 1266.08 C 1096.34 1251.02 1093.71 1232.76 1095.63 1216.78 C 1096.95 1205.84 1100.38 1195.18 1103.54 1184.66 C 1109.91 1163.46 1117.27 1142.26 1127.36 1122.51 C 1175.45 1028.45 1266.19 982.057 1365.16 960.181 C 1413.71 948.958 1463.68 945.079 1513.39 948.673 C 1523 949.37 1536.66 949.226 1544.83 954.784 C 1547.63 956.686 1550.03 959.714 1550.64 963.118 C 1551.5 967.949 1548.88 973.514 1546.71 977.688 C 1537.97 994.535 1525.11 1010.17 1514.52 1025.97 C 1493.65 1057.11 1473.94 1089.01 1450.87 1118.62 C 1387.22 1200.29 1301.85 1266.4 1196.37 1279.28 C 1186 1280.55 1175.59 1281.38 1165.15 1281.76 C 1153.35 1282.17 1128.8 1279.34 1119.27 1283.28 C 1106.65 1288.5 1096.26 1302.15 1088.1 1312.54 C 1079.65 1323.5 1071.42 1334.64 1063.43 1345.94 L 1056.31 1357.03 C 1055 1357.73 1055.69 1357.3 1054.06 1358.59 C 1052.99 1359.45 1053.01 1359.76 1051.83 1359.9 C 1048.15 1360.35 1041.89 1357.64 1039.1 1355.45 C 1035.31 1352.47 1034.25 1351.66 1033.7 1346.84 C 1037.71 1341.52 1041.14 1335.55 1044.75 1329.94 z M 1119.37 1237.21 C 1135.96 1220.2 1151.82 1202.68 1169.15 1186.38 C 1187.24 1169.37 1282.66 1086.69 1305.91 1086.95 C 1307.82 1086.97 1310.07 1087.68 1311.38 1089.08 C 1313.71 1091.57 1314.29 1095.07 1314.02 1098.39 C 1313.77 1101.45 1312.21 1103.43 1309.93 1105.29 C 1303.31 1110.69 1295.62 1115.43 1288.53 1120.2 C 1233.84 1159.39 1176.01 1202.02 1137.33 1258.1 C 1220.89 1263.16 1298.7 1229.91 1360.59 1175.19 C 1405.5 1135.48 1445.84 1083.43 1477.85 1032.9 C 1489.5 1014.5 1499.65 989.872 1513.33 973.662 C 1495.64 974.16 1477.92 972.761 1460.28 973.465 C 1368.87 975.806 1259.11 1007.62 1194.86 1075.23 C 1153.73 1118.53 1126.4 1177.86 1119.37 1237.21 z"/>
<path transform="translate(0,0)" fill="rgb(70,95,95)" d="M 1044.75 1329.94 C 1045.14 1329.65 1045.54 1329.36 1045.93 1329.07 C 1048.24 1327.31 1050.14 1323.68 1053.19 1323.85 C 1058.37 1324.13 1067.16 1327.34 1071.17 1330.6 C 1068.87 1335.63 1063.56 1340.33 1063.43 1345.94 L 1056.31 1357.03 C 1055 1357.73 1055.69 1357.3 1054.06 1358.59 C 1052.99 1359.45 1053.01 1359.76 1051.83 1359.9 C 1048.15 1360.35 1041.89 1357.64 1039.1 1355.45 C 1035.31 1352.47 1034.25 1351.66 1033.7 1346.84 C 1037.71 1341.52 1041.14 1335.55 1044.75 1329.94 z"/>
</svg>