<svg version="1.1" xmlns="http://www.w3.org/2000/svg" style="display: block;" viewBox="0 0 2048 2048" width="512" height="512">
<path transform="translate(0,0)" fill="rgb(205, 230, 214)" d="M 993.397 0 L 1055.48 0 C 1056.03 0.235318 1056.59 0.482659 1057.15 0.705955 C 1066.83 4.55002 1081.54 3.84352 1092.22 5.42125 C 1104.34 7.2116 1116.62 10.2733 1128.39 13.658 C 1217.92 39.3881 1294.12 88.5543 1362.57 151.076 C 1377.65 164.878 1392.22 179.222 1406.25 194.079 C 1415.56 203.765 1445.5 239.682 1454.68 244.545 C 1467.13 251.137 1488.76 252.333 1503.02 255.561 C 1519.39 259.268 1535.82 263.879 1551.89 268.731 C 1633.03 293.227 1724.67 337.353 1787.05 395.709 C 1818.89 425.391 1844.9 460.757 1863.76 499.99 C 1891.05 558.182 1899.17 622.404 1897.66 686.166 C 1897.21 705.072 1895.36 723.857 1894.64 742.715 C 1907.54 760.283 1922.54 776.201 1935.77 793.521 C 1978.15 848.996 2013.14 909.689 2032.01 977.21 C 2036.97 994.96 2040.18 1013.07 2042.72 1031.3 C 2044.24 1042.15 2044.58 1055.1 2048 1065.44 L 2048 1110.69 C 2047.9 1111 2047.8 1111.31 2047.71 1111.62 C 2041.59 1132.23 2042.06 1155.58 2036.43 1176.88 C 2014.39 1260.25 1966.57 1336.25 1906.93 1397.71 C 1897.06 1407.74 1886.93 1417.52 1876.54 1427.02 C 1867.95 1434.74 1840.31 1455.4 1835.58 1463.14 C 1832.85 1467.64 1823.54 1521 1820.67 1532.61 C 1792.07 1648.36 1741.21 1737.8 1634.28 1796.74 C 1578.87 1827.29 1520.09 1838.65 1457.44 1840.56 C 1443.11 1841 1428.6 1841.91 1414.27 1841.11 C 1395.05 1859.56 1377.34 1879.54 1357.82 1897.75 C 1297.73 1953.82 1222.33 2005.67 1143.04 2029.83 C 1126.17 2035.03 1108.94 2038.98 1091.48 2041.63 C 1078.52 2043.55 1063.09 2043.79 1050.8 2048 L 1000.11 2048 C 990.754 2045.18 980.714 2044.6 971.049 2043.42 C 957.215 2041.74 943.323 2039.75 929.832 2036.22 C 841.897 2013.22 766.671 1964.19 697.897 1906.04 C 689.614 1899.04 633.388 1843.92 631.755 1843.19 C 624.257 1839.84 595.179 1841.82 584.459 1841.2 C 568.875 1840.35 553.32 1839.02 537.818 1837.22 C 514.108 1834.24 489.602 1827.91 467.148 1819.75 C 341.111 1773.92 268.324 1677.78 230.419 1552.6 C 225.723 1537.09 221.725 1521.17 218.296 1505.33 C 215.82 1493.89 214.692 1474.88 209.39 1464.89 C 205.941 1458.39 179.491 1436.46 172.343 1429.49 C 157.687 1415.25 143.333 1400.7 129.292 1385.85 C 108.157 1363.08 89.1339 1337.17 72.1216 1311.22 C 45.9388 1271.28 23.2388 1223.96 11.0834 1177.68 C 7.9634 1165.8 5.17251 1135.73 0.731573 1127.24 C 0.501079 1126.8 0.243858 1126.37 0 1125.94 L 0 1055.07 C 4.60321 1047.83 6.93843 1014.26 9.02437 1004.29 C 12.7234 986.61 17.1445 968.511 23.1408 951.456 C 44.36 892.82 75.0871 838.077 114.09 789.423 C 126.775 773.558 142.138 759.199 154.035 742.92 C 154.273 742.594 154.504 742.263 154.739 741.935 C 148.512 661.392 147.113 579.504 181.842 504.521 C 197.229 471.3 218.372 435.699 243.119 408.606 C 301.532 344.656 413.284 291.424 496.09 268.443 C 509.27 264.785 522.659 261.246 536.073 258.56 C 550.364 255.698 579.372 253.575 591.066 247.579 C 601.808 242.07 630.15 206.527 640.34 195.724 C 653.918 181.155 667.941 167.007 682.388 153.3 C 723.141 114.875 770.046 80.258 819.173 53.3567 C 859.193 31.7475 902.22 16.2441 946.826 7.36082 C 958.289 5.12081 982.554 4.40451 991.772 0.693494 C 992.318 0.473619 992.855 0.231165 993.397 0 z M 1082.51 1602.72 C 1197.18 1684.78 1355.84 1741.61 1497.76 1718.04 C 1560.77 1707.58 1617.3 1677.38 1654.79 1624.74 C 1671.23 1601.66 1683.38 1574.42 1693.4 1547.96 C 1730.88 1448.97 1735.22 1345.65 1717.55 1242.02 C 1714.43 1223.72 1701.7 1161.76 1692.31 1148.25 L 1690.62 1147.45 C 1675.23 1169.79 1627.04 1206.64 1603.92 1222.12 C 1591.69 1230.32 1577.88 1237.49 1566.42 1246.6 C 1568.67 1266.24 1571.3 1285.98 1570.92 1305.78 C 1569.93 1357.04 1546.7 1405.05 1515.13 1444.6 C 1503.72 1458.9 1490.24 1470.85 1476.79 1483.17 C 1432.54 1523.71 1387.91 1553.19 1326.5 1559.75 C 1258.64 1567 1172.97 1546.37 1108.02 1526.27 C 1083.8 1518.77 1060.12 1507.3 1034.68 1504.75 C 1016.35 1502.92 999.681 1506.72 981.638 1509 C 1000.25 1531.35 1022.26 1551.1 1043.91 1570.45 C 1056.42 1581.63 1068.7 1593.14 1082.51 1602.72 z M 1265.59 365.183 C 1282.4 386.21 1299.86 406.787 1315.44 428.755 C 1327.92 446.339 1338.55 465.183 1350.75 482.96 C 1351.13 483.099 1351.51 483.244 1351.89 483.378 C 1369.98 489.697 1389.58 491.152 1407.92 497.474 C 1478.77 521.903 1539.69 572.738 1573.12 640.162 C 1611.36 717.305 1604.84 784.908 1582.19 864.495 C 1576.32 885.745 1569.87 906.829 1562.84 927.724 C 1552.23 958.851 1540.41 988.07 1518.77 1013.4 C 1535.55 1047.09 1542.46 1084.68 1551.35 1120.94 C 1565.5 1111.54 1579.51 1099.99 1591.7 1088.15 C 1618.18 1063.33 1642.31 1037.02 1663.75 1007.69 C 1724.9 924.037 1778.68 797.553 1781.99 693.088 C 1784.23 622.112 1772.99 548.733 1722.5 494.709 C 1696.15 466.51 1663.65 446.032 1630.09 427.434 C 1545.81 380.728 1481.12 359.752 1384.42 356.87 C 1370.5 356.363 1356.56 356.605 1342.67 357.594 C 1328.59 358.628 1314.54 359.925 1300.52 361.483 C 1289.07 362.845 1277.09 365.214 1265.59 365.183 z M 479.548 1106.06 C 485.379 1110.18 491.171 1114.38 497.135 1118.3 C 501.732 1102.53 506.023 1086.52 511.419 1071.01 C 516.505 1056.38 523.117 1041.88 526.786 1026.84 C 515.511 1003.2 504.365 979.317 495.066 954.821 C 483.543 924.465 474.369 892.914 464.686 861.925 C 456.527 835.815 447.051 810.269 444.945 782.744 C 442.046 744.862 449.522 704.213 462.184 668.497 C 480.153 617.815 515.131 566.21 558.993 534.145 C 574.042 523.144 591.511 513.952 608.376 506.029 C 624.98 498.229 643.101 491.768 661.124 488.118 C 672.592 485.795 685.669 485.446 696.398 480.747 C 696.503 480.701 696.611 480.663 696.717 480.621 C 709.225 465.906 719.268 449.389 729.884 433.303 C 744.791 410.714 760.447 388.196 778.648 368.097 C 738.068 364.082 695.624 357.464 654.802 361.592 C 621.905 364.299 588.944 367.911 556.682 375.145 C 482.377 391.807 374.186 436.192 324.173 494.913 C 277.546 549.658 262.735 625.784 268.723 695.782 C 281.096 840.406 346.331 995.37 458.82 1090.48 C 465.382 1096.03 472.532 1101.11 479.548 1106.06 z M 854.36 1665.01 C 880.793 1651.87 906.873 1638.53 932.024 1623.03 C 906.364 1599.04 885.001 1572.14 861.405 1546.34 C 771.95 1561.66 691.024 1574.96 611.36 1518.78 C 595.323 1507.48 581.245 1494.39 567.08 1480.88 C 520.629 1436.57 489.428 1393.04 478.63 1328.18 C 475.437 1309 475.64 1289.88 476.108 1270.52 C 476.29 1262.96 477.01 1255.09 476.585 1247.56 C 447.462 1227.94 420.249 1206.59 393.331 1184.06 C 384.885 1176.99 359.552 1150.3 353.306 1147.35 C 345.437 1181.45 334.467 1213 328.266 1248.1 C 311.144 1345.02 315.213 1442.51 347.876 1535.76 C 356.523 1560.45 367.009 1585.84 380.832 1608.11 C 414.257 1661.78 467.727 1699.87 529.366 1713.94 C 627.856 1736.61 764.768 1709.1 854.36 1665.01 z M 652.249 1026.72 C 622.661 1099.12 602.295 1163.51 594.237 1241.75 C 590.828 1286.25 585.928 1328.1 617.256 1364.55 C 626.11 1374.85 636.152 1384.25 645.885 1393.72 C 674.304 1421.38 699.571 1440.94 740.507 1443.69 C 781.575 1446.45 859.685 1430.06 899.471 1417.73 C 940.933 1404.89 980.992 1387.32 1025.2 1387.79 C 1066.28 1388.22 1105.4 1403.62 1144.16 1415.56 C 1194.4 1431.04 1287.23 1452.63 1337.78 1437.63 C 1358.27 1431.55 1375.8 1419.57 1391.64 1405.5 C 1422.71 1377.9 1451.41 1341.13 1453.74 1298.04 C 1455.11 1272.93 1452.47 1247.37 1449.72 1222.45 C 1443.21 1163.62 1433.88 1107.52 1406.65 1054.29 C 1402.87 1046.88 1398.62 1036.76 1392.95 1030.65 C 1391.96 1029.59 1390.86 1028.98 1389.6 1028.3 C 1388.26 1047.9 1383.62 1066.77 1378.27 1085.61 C 1357.71 1158.06 1316.95 1218.71 1260.3 1267.99 C 1185.89 1332.72 1088.46 1359 991.328 1352.21 C 898.347 1345.71 807.103 1295.03 746.67 1225.04 C 706.518 1178.54 678.582 1126.36 661.975 1067.34 C 658.191 1053.9 655.586 1040.26 652.249 1026.72 z M 1022.32 1242.92 C 1054.59 1242.26 1087.15 1233.12 1109.95 1209.09 C 1121.51 1196.91 1128 1181.9 1137.37 1168.24 C 1142.81 1160.3 1150.09 1153.92 1156.43 1146.73 C 1169.57 1131.84 1174.22 1111.41 1173.53 1092.01 C 1172.61 1066.18 1162.28 1038.03 1143.11 1020.17 C 1124.54 1002.88 1099.44 996.94 1079.16 982.468 C 1062.34 970.462 1042.85 945.898 1022.93 940.888 C 1002.42 951.987 987.81 968.891 969.092 982.055 C 956.811 990.691 942.808 996.241 929.624 1003.28 C 904.029 1016.95 884.481 1039.01 876.177 1067.01 C 870.052 1087.66 868.283 1114.99 878.758 1134.57 C 886.532 1149.1 900.404 1158.61 910.842 1171 C 917.559 1178.96 921.602 1188.17 926.789 1197.08 C 939.048 1218.14 960.786 1230.29 983.533 1236.75 C 996.285 1240.37 1009.14 1241.92 1022.32 1242.92 z M 1026.19 1930.69 C 1112.19 1926.24 1173.19 1897.39 1239.85 1844.88 C 1251.15 1835.98 1261.61 1826.18 1272.7 1817.05 C 1210.8 1807.48 1137.88 1770.13 1083.75 1738.92 C 1071.83 1732.04 1031.57 1704.8 1021.58 1702.92 C 971.915 1736.45 919.052 1764.98 863.764 1788.09 C 848.238 1794.47 832.595 1800.98 816.618 1806.15 C 811.015 1807.97 779.455 1816.4 777.422 1818.67 C 780.302 1829.55 852.161 1876.52 866.901 1885.1 C 916.47 1913.95 968.696 1929.87 1026.19 1930.69 z M 767.898 1034.61 C 787.832 983.827 812.684 938.302 861.525 909.767 C 876.801 900.843 894.394 895.323 908.651 884.802 C 932.006 867.566 940.693 850.768 970.007 838.1 C 992.883 828.214 1016.55 825.218 1041.21 828.184 C 1072.34 833.912 1093.96 846.561 1117.86 866.881 C 1125.73 873.573 1133.43 880.626 1141.99 886.438 C 1153.43 894.215 1166.85 899.174 1179.13 905.495 C 1205.45 919.036 1228.71 942.067 1245.48 966.192 C 1260.29 987.499 1268.98 1011.42 1276.71 1035.96 C 1290.93 978.407 1277.77 908.997 1247.2 858.744 C 1209.66 797.031 1151.16 751.2 1080.42 734.439 C 1059.94 729.588 1028.95 726.274 1008.26 729.384 C 930.981 736.801 870.874 766.726 821.207 826.499 C 778.495 877.983 758.172 944.422 764.773 1010.99 C 765.543 1018.85 766.391 1026.86 767.898 1034.61 z M 831.534 488.644 C 878.643 496.838 924.972 509.014 970.022 525.041 C 988.151 531.544 1005.62 541.785 1023.97 546.998 C 1029.58 544.847 1035.07 542.602 1040.52 540.059 C 1096.96 514.63 1156.72 499.728 1217.39 488.422 C 1208.47 477.536 1200.66 465.867 1191.85 454.914 C 1154.07 407.918 1107.87 362.981 1044.94 356.55 C 1031.54 355.181 1017.39 355.485 1003.95 356.43 C 989.625 358.885 975.624 361.368 961.947 366.481 C 913.899 384.447 872.935 428.427 843.69 469.753 C 839.392 475.827 835.046 482.085 831.534 488.644 z M 718.421 595.582 C 677.503 597.786 634.832 618.274 607.358 648.687 C 578.481 680.653 559.728 727.19 562.367 770.56 C 562.834 777.925 563.965 785.233 565.746 792.395 C 569.212 806.527 593.022 884.597 600.358 892.648 L 602.407 892.725 C 609.322 885.089 615.369 875.782 622.091 867.774 C 638.235 848.543 656.892 830.07 676.369 814.217 C 687.013 805.024 699.834 796.809 709.261 786.484 C 723.291 771.119 733.63 752.503 747.701 736.908 C 792.089 687.715 853.366 649.603 916.607 630.519 C 862.185 612.984 774.787 590.667 718.421 595.582 z M 1776.58 1042.98 C 1816.06 1132.27 1832.58 1210.75 1839.48 1307.83 C 1842.72 1304.16 1845.92 1300.5 1848.94 1296.63 C 1902.03 1233.8 1942.49 1157.08 1935.5 1072.3 C 1930.67 1013.6 1905.18 956.29 1875 906.397 C 1871.45 900.535 1863.69 885.944 1858.85 882.116 C 1858.35 881.723 1857.72 881.53 1857.16 881.236 C 1846.81 918.846 1823.67 966.106 1803.64 999.681 C 1794.95 1014.24 1784.81 1028.21 1776.58 1042.98 z M 200.573 1296.39 C 202.879 1299.11 205.12 1301.59 207.816 1303.94 C 209.531 1241.54 225.105 1167.63 244.418 1108.22 C 250.976 1088.04 261.718 1068.15 266.96 1047.8 C 243.843 1009.22 223.573 970.224 206 928.796 C 202.011 919.391 197.949 909.975 194.486 900.361 C 193.358 897.231 192.792 892.62 191.319 889.815 C 190.475 888.208 189.583 887.92 187.975 887.417 C 139.769 954.087 103.602 1044.29 117.257 1127.38 C 125.616 1178.24 151.066 1226.65 180.008 1268.79 C 186.35 1278.03 192.917 1288.2 200.573 1296.39 z M 750.961 247.211 C 782.966 250.257 814.128 256.364 845.632 262.581 C 861.402 265.693 877.199 269.415 893.141 271.46 C 945.322 248.815 973.147 241.1 1030.88 240.802 C 1061.64 242.058 1092.16 246.412 1121.31 256.749 C 1134.07 261.275 1146.22 267.178 1158.85 271.972 C 1173.11 270.124 1187.09 265.033 1201.09 261.728 C 1232.37 254.344 1265.51 248.043 1297.71 247.057 C 1285.29 234.146 1270.1 223.084 1256.1 211.891 C 1191.81 160.504 1118.99 117.245 1034.48 115.545 C 1029.71 115.434 1024.94 115.403 1020.17 115.453 C 939.011 118.277 869.31 150.34 806.361 200.103 C 787.332 215.146 769.861 232.121 750.961 247.211 z M 1283.01 596.399 C 1245.01 599.708 1208.26 608.656 1171.48 618.379 C 1157.16 622.163 1142.99 627.198 1128.45 629.911 C 1189.25 646.293 1248.47 686.977 1291.48 732.312 C 1306.4 748.043 1319.36 765.452 1333.69 781.679 C 1343.98 793.335 1355.51 804.057 1366.49 815.069 C 1374.92 823.516 1383.08 832.57 1391.84 840.643 L 1449.7 898.289 C 1456.69 876.657 1462.95 854.787 1469.73 833.086 C 1486.44 779.6 1497.85 746.055 1470.61 692.222 C 1448.93 649.379 1412.77 619.297 1366.99 604.772 C 1340.36 596.323 1310.8 594.493 1283.01 596.399 z"/>
</svg>